<svg height="512pt" viewBox="0 -33 512 512" width="512pt" xmlns="http://www.w3.org/2000/svg"><path d="m512 190.535156c0-47.464844-34.867188-86.933594-80.332031-94.152344v-54.464843c0-24.679688-15.554688-41.917969-37.820313-41.917969-6.53125 0-13.246094 1.53125-19.964844 4.554688l-201.433593 90.644531h-117.28125c-30.421875 0-55.167969 24.75-55.167969 55.167969v80.332031c0 19.289062 9.960938 36.289062 25 46.15625l23.644531 118.234375c5.773438 28.847656 33.335938 51.445312 62.753907 51.445312 30.421874 0 55.167968-24.75 55.167968-55.167968v-105.5h5.882813l201.433593 90.644531c6.71875 3.023437 13.433594 4.554687 19.964844 4.554687h.003906c10.957032 0 20.808594-4.378906 27.726563-12.332031 6.601563-7.582031 10.089844-17.8125 10.089844-29.582031v-54.46875c45.464843-7.21875 80.332031-46.6875 80.332031-94.148438zm-482-40.167968c0-13.878907 11.289062-25.167969 25.167969-25.167969h105.5v130.667969h-105.5c-13.878907 0-25.167969-11.289063-25.167969-25.167969zm106.566406 241c0 13.875-11.289062 25.167968-25.167968 25.167968-14.84375 0-30.421876-12.773437-33.335938-27.332031l-20.664062-103.335937h79.167968zm265.101563-52.21875c0 4.367187-.964844 7.878906-2.71875 9.890624-.757813.871094-2.109375 2.027344-5.101563 2.027344-2.226562 0-4.871094-.660156-7.652344-1.914062l-195.527343-87.984375v-141.269531l195.527343-87.988282c2.78125-1.25 5.425782-1.910156 7.652344-1.910156 6.460938 0 7.816406 6.480469 7.816406 11.914062v297.234376zm30-85.019532v-127.191406c28.816406 6.796875 50.332031 32.730469 50.332031 63.597656 0 30.863282-21.515625 56.796875-50.332031 63.59375zm0 0"/></svg>